<svg width="1504" height="505" viewBox="0 0 1504 505" fill="none" xmlns="http://www.w3.org/2000/svg">
<path d="M157.565 339.256H122.798C122.163 334.758 120.866 330.763 118.908 327.27C116.95 323.724 114.437 320.708 111.367 318.221C108.298 315.734 104.753 313.829 100.731 312.506C96.7619 311.183 92.449 310.521 87.7922 310.521C79.3781 310.521 72.0488 312.611 65.8044 316.792C59.56 320.92 54.718 326.952 51.2782 334.89C47.8385 342.775 46.1187 352.353 46.1187 363.625C46.1187 375.214 47.8385 384.951 51.2782 392.836C54.7709 400.721 59.6394 406.674 65.8838 410.696C72.1282 414.718 79.3516 416.729 87.554 416.729C92.158 416.729 96.4179 416.12 100.334 414.903C104.303 413.686 107.822 411.913 110.891 409.585C113.96 407.204 116.501 404.32 118.511 400.933C120.575 397.546 122.004 393.683 122.798 389.344L157.565 389.502C156.666 396.964 154.417 404.161 150.818 411.093C147.273 417.973 142.484 424.138 136.451 429.588C130.471 434.986 123.327 439.272 115.019 442.447C106.764 445.57 97.4234 447.131 86.9984 447.131C72.4987 447.131 59.5336 443.85 48.1031 437.288C36.7256 430.726 27.7294 421.227 21.1146 408.791C14.5526 396.355 11.2717 381.3 11.2717 363.625C11.2717 345.897 14.6056 330.815 21.2733 318.38C27.9411 305.944 36.9902 296.471 48.4206 289.962C59.8511 283.4 72.7103 280.119 86.9984 280.119C96.4179 280.119 105.15 281.442 113.193 284.088C121.29 286.734 128.46 290.597 134.705 295.677C140.949 300.705 146.029 306.87 149.945 314.172C153.914 321.475 156.454 329.836 157.565 339.256ZM236.666 447.29C224.336 447.29 213.673 444.67 204.676 439.431C195.733 434.139 188.827 426.784 183.959 417.364C179.09 407.892 176.656 396.911 176.656 384.422C176.656 371.827 179.09 360.82 183.959 351.401C188.827 341.928 195.733 334.573 204.676 329.334C213.673 324.042 224.336 321.396 236.666 321.396C248.996 321.396 259.632 324.042 268.576 329.334C277.572 334.573 284.504 341.928 289.373 351.401C294.241 360.82 296.676 371.827 296.676 384.422C296.676 396.911 294.241 407.892 289.373 417.364C284.504 426.784 277.572 434.139 268.576 439.431C259.632 444.67 248.996 447.29 236.666 447.29ZM236.825 421.095C242.434 421.095 247.117 419.507 250.874 416.332C254.632 413.104 257.463 408.712 259.368 403.155C261.326 397.599 262.305 391.275 262.305 384.184C262.305 377.093 261.326 370.769 259.368 365.213C257.463 359.656 254.632 355.264 250.874 352.036C247.117 348.808 242.434 347.194 236.825 347.194C231.162 347.194 226.4 348.808 222.536 352.036C218.726 355.264 215.842 359.656 213.884 365.213C211.979 370.769 211.027 377.093 211.027 384.184C211.027 391.275 211.979 397.599 213.884 403.155C215.842 408.712 218.726 413.104 222.536 416.332C226.4 419.507 231.162 421.095 236.825 421.095ZM352.478 374.42V444.908H318.663V322.983H350.891V344.495H352.32C355.019 337.404 359.543 331.794 365.893 327.667C372.244 323.486 379.943 321.396 388.992 321.396C397.459 321.396 404.841 323.248 411.139 326.952C417.436 330.657 422.331 335.949 425.824 342.828C429.316 349.654 431.063 357.804 431.063 367.276V444.908H397.248V373.309C397.301 365.848 395.395 360.027 391.532 355.846C387.669 351.612 382.351 349.496 375.577 349.496C371.026 349.496 367.005 350.475 363.512 352.433C360.072 354.391 357.373 357.248 355.415 361.006C353.51 364.71 352.531 369.182 352.478 374.42ZM559.159 357.751L528.202 359.656C527.672 357.01 526.535 354.629 524.788 352.512C523.042 350.342 520.74 348.623 517.882 347.353C515.078 346.03 511.717 345.368 507.801 345.368C502.562 345.368 498.144 346.479 494.545 348.702C490.947 350.872 489.148 353.782 489.148 357.434C489.148 360.344 490.312 362.805 492.64 364.816C494.969 366.827 498.964 368.441 504.626 369.658L526.693 374.103C538.547 376.537 547.385 380.453 553.206 385.851C559.027 391.249 561.937 398.34 561.937 407.124C561.937 415.115 559.582 422.127 554.873 428.159C550.216 434.192 543.813 438.902 535.663 442.289C527.567 445.623 518.226 447.29 507.643 447.29C491.502 447.29 478.643 443.929 469.065 437.209C459.54 430.435 453.957 421.227 452.316 409.585L485.576 407.839C486.581 412.76 489.015 416.517 492.878 419.11C496.741 421.65 501.689 422.92 507.722 422.92C513.649 422.92 518.412 421.783 522.01 419.507C525.662 417.179 527.514 414.189 527.567 410.537C527.514 407.468 526.217 404.955 523.677 402.997C521.137 400.986 517.221 399.451 511.929 398.393L490.815 394.186C478.908 391.804 470.044 387.677 464.223 381.803C458.455 375.929 455.571 368.441 455.571 359.339C455.571 351.507 457.687 344.76 461.921 339.097C466.207 333.435 472.214 329.069 479.94 326C487.719 322.931 496.821 321.396 507.246 321.396C522.645 321.396 534.764 324.65 543.601 331.159C552.491 337.668 557.677 346.532 559.159 357.751ZM648.082 322.983V348.384H574.658V322.983H648.082ZM591.327 293.772H625.142V407.442C625.142 410.564 625.618 412.998 626.571 414.745C627.523 416.438 628.846 417.629 630.54 418.317C632.286 419.004 634.297 419.348 636.573 419.348C638.16 419.348 639.748 419.216 641.335 418.952C642.923 418.634 644.14 418.396 644.987 418.237L650.305 443.4C648.612 443.929 646.23 444.538 643.161 445.226C640.092 445.967 636.361 446.416 631.969 446.575C623.819 446.893 616.675 445.808 610.537 443.321C604.451 440.833 599.715 436.97 596.328 431.731C592.941 426.492 591.274 419.878 591.327 411.887V293.772ZM670.11 444.908V322.983H702.893V344.257H704.163C706.386 336.689 710.116 330.974 715.355 327.111C720.594 323.195 726.627 321.237 733.453 321.237C735.147 321.237 736.973 321.343 738.931 321.555C740.889 321.766 742.608 322.057 744.09 322.428V352.433C742.503 351.956 740.306 351.533 737.502 351.163C734.697 350.792 732.13 350.607 729.802 350.607C724.828 350.607 720.383 351.692 716.467 353.862C712.603 355.978 709.534 358.942 707.259 362.752C705.036 366.562 703.925 370.954 703.925 375.929V444.908H670.11ZM839.761 392.995V322.983H873.576V444.908H841.11V422.762H839.84C837.088 429.906 832.511 435.647 826.108 439.987C819.757 444.326 812.005 446.496 802.85 446.496C794.7 446.496 787.53 444.644 781.338 440.939C775.147 437.235 770.305 431.97 766.812 425.143C763.372 418.317 761.626 410.141 761.573 400.615V322.983H795.388V394.582C795.441 401.779 797.373 407.468 801.183 411.649C804.993 415.829 810.1 417.92 816.503 417.92C820.578 417.92 824.388 416.994 827.933 415.141C831.479 413.236 834.336 410.432 836.506 406.727C838.729 403.023 839.814 398.446 839.761 392.995ZM955.712 447.29C943.223 447.29 932.481 444.644 923.485 439.352C914.541 434.007 907.662 426.598 902.846 417.126C898.084 407.653 895.702 396.752 895.702 384.422C895.702 371.933 898.11 360.979 902.926 351.56C907.794 342.087 914.7 334.705 923.643 329.413C932.587 324.068 943.223 321.396 955.553 321.396C966.19 321.396 975.504 323.327 983.494 327.19C991.485 331.054 997.809 336.478 1002.47 343.463C1007.12 350.448 1009.69 358.651 1010.17 368.07H978.255C977.356 361.985 974.975 357.09 971.111 353.385C967.301 349.628 962.301 347.749 956.109 347.749C950.87 347.749 946.293 349.178 942.377 352.036C938.514 354.841 935.497 358.942 933.328 364.339C931.158 369.737 930.073 376.273 930.073 383.946C930.073 391.725 931.131 398.34 933.248 403.79C935.418 409.241 938.461 413.395 942.377 416.253C946.293 419.11 950.87 420.539 956.109 420.539C959.972 420.539 963.438 419.745 966.508 418.158C969.63 416.57 972.196 414.268 974.207 411.252C976.271 408.183 977.62 404.505 978.255 400.218H1010.17C1009.64 409.532 1007.1 417.734 1002.55 424.826C998.047 431.864 991.829 437.367 983.891 441.336C975.954 445.305 966.56 447.29 955.712 447.29ZM1096.67 322.983V348.384H1023.24V322.983H1096.67ZM1039.91 293.772H1073.73V407.442C1073.73 410.564 1074.2 412.998 1075.16 414.745C1076.11 416.438 1077.43 417.629 1079.13 418.317C1080.87 419.004 1082.88 419.348 1085.16 419.348C1086.75 419.348 1088.33 419.216 1089.92 418.952C1091.51 418.634 1092.73 418.396 1093.57 418.237L1098.89 443.4C1097.2 443.929 1094.82 444.538 1091.75 445.226C1088.68 445.967 1084.95 446.416 1080.55 446.575C1072.4 446.893 1065.26 445.808 1059.12 443.321C1053.04 440.833 1048.3 436.97 1044.91 431.731C1041.53 426.492 1039.86 419.878 1039.91 411.887V293.772Z" fill="#152F45"/>
<path d="M1121.95 444.908V282.342H1231.49V310.68H1156.32V349.416H1225.86V377.754H1156.32V416.57H1231.81V444.908H1121.95ZM1257.55 444.908V424.746L1317.24 350.845V349.972H1259.61V322.983H1357.96V344.971L1301.92 417.046V417.92H1360.02V444.908H1257.55ZM1406.76 490.63C1402.47 490.63 1398.45 490.286 1394.69 489.598C1390.99 488.963 1387.92 488.143 1385.48 487.137L1393.11 461.895C1397.07 463.112 1400.65 463.774 1403.82 463.88C1407.05 463.985 1409.83 463.245 1412.16 461.657C1414.54 460.069 1416.47 457.371 1417.95 453.56L1419.94 448.401L1376.2 322.983H1411.76L1437 412.522H1438.27L1463.75 322.983H1499.55L1452.16 458.085C1449.89 464.647 1446.79 470.362 1442.88 475.231C1439.01 480.152 1434.12 483.936 1428.19 486.582C1422.26 489.281 1415.12 490.63 1406.76 490.63Z" fill="#E45F01"/>
<path d="M259.52 86.4278V193.191L283.798 192.05V145.775L290.853 143.389V201.18L301.021 193.917V64.7432L259.52 86.4278Z" fill="#152F45"/>
<path d="M306.832 190.908V65.0537L346.881 90.0585V170.364L306.832 190.908Z" fill="#152F45" stroke="black" stroke-width="0.207509"/>
<path d="M350.618 87.6723V167.978L381.121 153.245V0.933594L335.158 36.1063V77.1931L350.618 87.6723Z" fill="#E45F01"/>
<path d="M387.969 0V150.548L407.89 141.936V89.1251L428.225 76.052V21.4772L387.969 0Z" fill="#152F45"/>
<path d="M411.521 91.1998L448.458 68.8926L446.072 174.722L411.521 144.322V91.1998Z" fill="#152F45"/>
<path d="M450.221 68.2705V178.873L489.025 211.037V90.3702L450.221 68.2705Z" fill="#152F45"/>
<path d="M459.766 174.619V141.937L465.991 144.945V177.421L459.766 174.619Z" fill="white"/>
<path d="M472.736 163.62V147.85L477.82 149.198V163.62H472.736Z" fill="white"/>
<path d="M472.736 138.409V121.082L478.65 123.365V141.003L472.736 138.409Z" fill="white"/>
<path d="M460.182 134.57V114.338L465.992 118.177V137.579L460.182 134.57Z" fill="white"/>
<path d="M460.596 106.348V91.5107L466.302 94.5196V109.772L460.596 106.348Z" fill="white"/>
<path d="M404.361 26.4576L398.654 24.0713V43.2659L404.361 44.5109V26.4576Z" fill="white"/>
<path d="M417.539 31.9557L412.559 29.9844V47.0001L417.539 48.1414V31.9557Z" fill="white"/>
<path d="M404.361 50.9433L398.758 48.8682V70.3453L404.361 72.1092V50.9433Z" fill="white"/>
<path d="M417.641 55.6127L412.246 53.7451V74.2885L417.641 72.3172V55.6127Z" fill="white"/>
<path d="M398.447 99.916V76.5713L402.909 79.2689V102.095L398.447 99.916Z" fill="white"/>
<path d="M316.17 105.933V90.4736L322.81 93.5863V108.838L316.17 105.933Z" fill="white"/>
<path d="M330.281 110.81V97.8408L336.299 100.227V114.442L330.281 110.81Z" fill="white"/>
<path d="M330.281 137.163V120.147L336.507 122.845V140.276L330.281 137.163Z" fill="white"/>
<path d="M316.586 134.259V114.441L322.5 117.762V136.956L316.586 134.259Z" fill="white"/>
<path d="M290.024 106.244V90.4736L283.799 93.5863V109.046L290.024 106.244Z" fill="white"/>
<path d="M290.231 134.05V115.686L284.213 117.761V136.54L290.231 134.05Z" fill="white"/>
<path d="M276.951 136.333V120.562L271.244 122.845V138.927L276.951 136.333Z" fill="white"/>
<path d="M276.95 110.187V96.0762L271.451 98.8775V112.884L276.95 110.187Z" fill="white"/>
<path d="M472.84 112.884V98.1514L478.754 100.745V114.856L472.84 112.884Z" fill="white"/>
<path d="M246.551 240.399L165 313.027L246.551 307.32L406.437 177.627L574 313.027L559.889 279.929L406.748 147.85L295.834 203.254L285.978 210.517V224.109L261.18 246.001H257.238L251.116 249.114L257.238 243.511L263.152 241.644V205.848L246.551 212.489V240.399Z" fill="#E45F01"/>
<path d="M244.164 209.169V201.595L263.151 195.889L284.421 196.822V203.567H263.151L244.164 209.169Z" fill="#152F45"/>
<path d="M401.768 214.46H382.988V234.9H401.768V214.46Z" fill="#152F45"/>
<path d="M426.254 215.187H408.305V234.589H426.254V215.187Z" fill="#152F45"/>
<path d="M401.975 240.918H382.988V261.565H401.975V240.918Z" fill="#152F45"/>
<path d="M426.565 240.814H408.305V261.15H426.565V240.814Z" fill="#152F45"/>
<path d="M280.998 273.497C281.14 273.344 281.425 273.077 281.845 272.701L406.437 155.632L509.05 254.302L406.437 170.572C367.769 202.023 291.231 264.302 281.845 272.701L280.998 273.497Z" fill="white"/>
</svg>
